<svg version="1.1" xmlns="http://www.w3.org/2000/svg" xmlns:xlink="http://www.w3.org/1999/xlink">
            <defs>
                <symbol viewBox="0 0 512 512" id="home-icon">
                    <polygon class="st0"
                        points="434.162,293.382 434.162,493.862 308.321,493.862 308.321,368.583 203.682,368.583 203.682,493.862 77.841,493.862 77.841,293.382 256.002,153.862 " />
                    <polygon class="st0"
                        points="0,242.682 256,38.93 512,242.682 482.21,285.764 256,105.722 29.79,285.764 " />
                    <polygon class="st0" points="439.853,18.138 439.853,148.538 376.573,98.138 376.573,18.138 " />
                </symbol>

                <symbol viewBox="0 0 32 32" id="camera-icon">
                    <path
                        d="M0 28q0 0.832 0.576 1.44t1.44 0.576h28q0.8 0 1.408-0.576t0.576-1.44v-20q0-0.832-0.576-1.408t-1.408-0.576h-6.016v-2.016q0-0.832-0.576-1.408t-1.408-0.576h-12q-0.832 0-1.44 0.576t-0.576 1.408v2.016h-5.984q-0.832 0-1.44 0.576t-0.576 1.408v20zM4 26.016v-16h8v-4h8v4h8v16h-24zM6.016 13.024q0 0.384 0.288 0.704t0.704 0.288 0.704-0.288 0.288-0.704-0.288-0.704-0.704-0.32-0.704 0.32-0.288 0.704zM10.016 18.016q0 2.496 1.728 4.224t4.256 1.76 4.256-1.76 1.76-4.224-1.76-4.256-4.256-1.76-4.256 1.76-1.728 4.256zM12 18.016q0-1.664 1.184-2.848t2.816-1.152 2.816 1.152 1.184 2.848-1.184 2.816-2.816 1.184-2.816-1.184-1.184-2.816z" />

                </symbol>

                <symbol viewBox="0 0 1024 1024" id="more-icon">
                    <path
                        d="M245.76 512c0 67.865-55.015 122.88-122.88 122.88S0 579.865 0 512s55.015-122.88 122.88-122.88S245.76 444.135 245.76 512zm389.12 0c0 67.865-55.015 122.88-122.88 122.88S389.12 579.865 389.12 512 444.135 389.12 512 389.12 634.88 444.135 634.88 512zm389.12 0c0 67.865-55.015 122.88-122.88 122.88S778.24 579.865 778.24 512s55.015-122.88 122.88-122.88S1024 444.135 1024 512z" />
                </symbol>

                <symbol viewBox="0 0 24 24" id="arrow-prev-icon">
                    <path
                        d="M14.2893 5.70708C13.8988 5.31655 13.2657 5.31655 12.8751 5.70708L7.98768 10.5993C7.20729 11.3805 7.2076 12.6463 7.98837 13.427L12.8787 18.3174C13.2693 18.7079 13.9024 18.7079 14.293 18.3174C14.6835 17.9269 14.6835 17.2937 14.293 16.9032L10.1073 12.7175C9.71678 12.327 9.71678 11.6939 10.1073 11.3033L14.2893 7.12129C14.6799 6.73077 14.6799 6.0976 14.2893 5.70708Z" />
                </symbol>

                <symbol viewBox="-143 145 512 512" id="facebook-icon">
                    <path
                        d="M113,145c-141.4,0-256,114.6-256,256s114.6,256,256,256s256-114.6,256-256S254.4,145,113,145z M272.8,560.7 c-20.8,20.8-44.9,37.1-71.8,48.4c-27.8,11.8-57.4,17.7-88,17.7c-30.5,0-60.1-6-88-17.7c-26.9-11.4-51.1-27.7-71.8-48.4 c-20.8-20.8-37.1-44.9-48.4-71.8C-107,461.1-113,431.5-113,401s6-60.1,17.7-88c11.4-26.9,27.7-51.1,48.4-71.8 c20.9-20.8,45-37.1,71.9-48.5C52.9,181,82.5,175,113,175s60.1,6,88,17.7c26.9,11.4,51.1,27.7,71.8,48.4 c20.8,20.8,37.1,44.9,48.4,71.8c11.8,27.8,17.7,57.4,17.7,88c0,30.5-6,60.1-17.7,88C309.8,515.8,293.5,540,272.8,560.7z" />
                    <path
                        d="M146.8,313.7c10.3,0,21.3,3.2,21.3,3.2l6.6-39.2c0,0-14-4.8-47.4-4.8c-20.5,0-32.4,7.8-41.1,19.3 c-8.2,10.9-8.5,28.4-8.5,39.7v25.7H51.2v38.3h26.5v133h49.6v-133h39.3l2.9-38.3h-42.2v-29.9C127.3,317.4,136.5,313.7,146.8,313.7z" />
                </symbol>
                <symbol viewBox="-143 145 512 512" id="twitter-icon">
                    <path d="M113,145c-141.4,0-256,114.6-256,256s114.6,256,256,256s256-114.6,256-256S254.4,145,113,145z M272.8,560.7 c-20.8,20.8-44.9,37.1-71.8,48.4c-27.8,11.8-57.4,17.7-88,17.7c-30.5,0-60.1-6-88-17.7c-26.9-11.4-51.1-27.7-71.8-48.4 c-20.8-20.8-37.1-44.9-48.4-71.8C-107,461.1-113,431.5-113,401s6-60.1,17.7-88c11.4-26.9,27.7-51.1,48.4-71.8 c20.9-20.8,45-37.1,71.9-48.5C52.9,181,82.5,175,113,175s60.1,6,88,17.7c26.9,11.4,51.1,27.7,71.8,48.4 c20.8,20.8,37.1,44.9,48.4,71.8c11.8,27.8,17.7,57.4,17.7,88c0,30.5-6,60.1-17.7,88C309.8,515.8,293.5,540,272.8,560.7z"/> <path d="M234.3,313.1c-10.2,6-21.4,10.4-33.4,12.8c-9.6-10.2-23.3-16.6-38.4-16.6c-29,0-52.6,23.6-52.6,52.6c0,4.1,0.4,8.1,1.4,12 c-43.7-2.2-82.5-23.1-108.4-55c-4.5,7.8-7.1,16.8-7.1,26.5c0,18.2,9.3,34.3,23.4,43.8c-8.6-0.3-16.7-2.7-23.8-6.6v0.6 c0,25.5,18.1,46.8,42.2,51.6c-4.4,1.2-9.1,1.9-13.9,1.9c-3.4,0-6.7-0.3-9.9-0.9c6.7,20.9,26.1,36.1,49.1,36.5 c-18,14.1-40.7,22.5-65.3,22.5c-4.2,0-8.4-0.2-12.6-0.7c23.3,14.9,50.9,23.6,80.6,23.6c96.8,0,149.7-80.2,149.7-149.7 c0-2.3,0-4.6-0.1-6.8c10.3-7.5,19.2-16.7,26.2-27.3c-9.4,4.2-19.6,7-30.2,8.3C222.1,335.7,230.4,325.4,234.3,313.1z"/> 
                </symbol>
                <symbol viewBox="-143 145 512 512" id="instagram-icon">
                    <path d="M113,145c-141.4,0-256,114.6-256,256s114.6,256,256,256s256-114.6,256-256S254.4,145,113,145z M272.8,560.7 c-20.8,20.8-44.9,37.1-71.8,48.4c-27.8,11.8-57.4,17.7-88,17.7c-30.5,0-60.1-6-88-17.7c-26.9-11.4-51.1-27.7-71.8-48.4 c-20.8-20.8-37.1-44.9-48.4-71.8C-107,461.1-113,431.5-113,401s6-60.1,17.7-88c11.4-26.9,27.7-51.1,48.4-71.8 c20.9-20.8,45-37.1,71.9-48.5C52.9,181,82.5,175,113,175s60.1,6,88,17.7c26.9,11.4,51.1,27.7,71.8,48.4 c20.8,20.8,37.1,44.9,48.4,71.8c11.8,27.8,17.7,57.4,17.7,88c0,30.5-6,60.1-17.7,88C309.8,515.8,293.5,540,272.8,560.7z"/> <path d="M191.6,273h-157c-27.3,0-49.5,22.2-49.5,49.5v52.3v104.8c0,27.3,22.2,49.5,49.5,49.5h157c27.3,0,49.5-22.2,49.5-49.5V374.7 v-52.3C241,295.2,218.8,273,191.6,273z M205.8,302.5h5.7v5.6v37.8l-43.3,0.1l-0.1-43.4L205.8,302.5z M76.5,374.7 c8.2-11.3,21.5-18.8,36.5-18.8s28.3,7.4,36.5,18.8c5.4,7.4,8.5,16.5,8.5,26.3c0,24.8-20.2,45.1-45.1,45.1C88,446.1,68,425.8,68,401 C68,391.2,71.2,382.1,76.5,374.7z M216.1,479.5c0,13.5-11,24.5-24.5,24.5h-157c-13.5,0-24.5-11-24.5-24.5V374.7h38.2 c-3.3,8.1-5.2,17-5.2,26.3c0,38.6,31.4,70,70,70c38.6,0,70-31.4,70-70c0-9.3-1.9-18.2-5.2-26.3h38.2V479.5z"/>
                </symbol>
                <symbol viewBox="-143 145 512 512" id="linkedin-icon">
                    <path d="M113,145c-141.4,0-256,114.6-256,256s114.6,256,256,256s256-114.6,256-256S254.4,145,113,145z M272.8,560.7 c-20.8,20.8-44.9,37.1-71.8,48.4c-27.8,11.8-57.4,17.7-88,17.7c-30.5,0-60.1-6-88-17.7c-26.9-11.4-51.1-27.7-71.8-48.4 c-20.8-20.8-37.1-44.9-48.4-71.8C-107,461.1-113,431.5-113,401s6-60.1,17.7-88c11.4-26.9,27.7-51.1,48.4-71.8 c20.9-20.8,45-37.1,71.9-48.5C52.9,181,82.5,175,113,175s60.1,6,88,17.7c26.9,11.4,51.1,27.7,71.8,48.4 c20.8,20.8,37.1,44.9,48.4,71.8c11.8,27.8,17.7,57.4,17.7,88c0,30.5-6,60.1-17.7,88C309.8,515.8,293.5,540,272.8,560.7z"/><path d="M15.4,273c-18.4,0-30.5,11.9-30.5,27.7c0,15.5,11.7,27.7,29.8,27.7h0.4c18.8,0,30.5-12.3,30.4-27.7 C45.1,284.9,33.8,273,15.4,273z"/> <path d="M177.7,346.9c-28.6,0-46.5,15.6-49.8,26.6v-25.1H71.8c0.7,13.3,0,159.7,0,159.7h56.1v-86.3c0-4.9-0.2-9.7,1.2-13.1 c3.8-9.6,12.1-19.6,27-19.6c19.5,0,28.3,14.8,28.3,36.4v82.6H241v-88.8C241,369.9,213.2,346.9,177.7,346.9z"/>
                </symbol>
                <symbol viewBox="0 0 32 32" id="github-icon">
                   <path d="M16 1.375c-8.282 0-14.996 6.714-14.996 14.996 0 6.585 4.245 12.18 10.148 14.195l0.106 0.031c0.75 0.141 1.025-0.322 1.025-0.721 0-0.356-0.012-1.3-0.019-2.549-4.171 0.905-5.051-2.012-5.051-2.012-0.288-0.925-0.878-1.685-1.653-2.184l-0.016-0.009c-1.358-0.93 0.105-0.911 0.105-0.911 0.987 0.139 1.814 0.718 2.289 1.53l0.008 0.015c0.554 0.995 1.6 1.657 2.801 1.657 0.576 0 1.116-0.152 1.582-0.419l-0.016 0.008c0.072-0.791 0.421-1.489 0.949-2.005l0.001-0.001c-3.33-0.375-6.831-1.665-6.831-7.41-0-0.027-0.001-0.058-0.001-0.089 0-1.521 0.587-2.905 1.547-3.938l-0.003 0.004c-0.203-0.542-0.321-1.168-0.321-1.821 0-0.777 0.166-1.516 0.465-2.182l-0.014 0.034s1.256-0.402 4.124 1.537c1.124-0.321 2.415-0.506 3.749-0.506s2.625 0.185 3.849 0.53l-0.1-0.024c2.849-1.939 4.105-1.537 4.105-1.537 0.285 0.642 0.451 1.39 0.451 2.177 0 0.642-0.11 1.258-0.313 1.83l0.012-0.038c0.953 1.032 1.538 2.416 1.538 3.937 0 0.031-0 0.061-0.001 0.091l0-0.005c0 5.761-3.505 7.029-6.842 7.398 0.632 0.647 1.022 1.532 1.022 2.509 0 0.093-0.004 0.186-0.011 0.278l0.001-0.012c0 2.007-0.019 3.619-0.019 4.106 0 0.394 0.262 0.862 1.031 0.712 6.028-2.029 10.292-7.629 10.292-14.226 0-8.272-6.706-14.977-14.977-14.977-0.006 0-0.013 0-0.019 0h0.001z"/>
                </symbol>
                <symbol viewBox="0 0 32 32" id="reddit-icon">
                   <path d="M12.606 20.986c-0.225 0.001-0.407 0.183-0.407 0.408 0 0.112 0.045 0.214 0.118 0.288l-0-0c0.952 0.716 2.155 1.146 3.457 1.146 0.085 0 0.17-0.002 0.255-0.006l-0.012 0c0.081 0.004 0.175 0.006 0.27 0.006 1.294 0 2.488-0.431 3.445-1.158l-0.014 0.010c0.077-0.081 0.124-0.19 0.124-0.311 0-0.101-0.033-0.194-0.089-0.269l0.001 0.001c-0.074-0.074-0.177-0.119-0.29-0.119s-0.215 0.045-0.29 0.119l0-0c-0.799 0.575-1.798 0.919-2.877 0.919-0.092 0-0.184-0.003-0.275-0.007l0.013 0.001c-0.082 0.005-0.178 0.008-0.274 0.008-1.075 0-2.070-0.345-2.88-0.93l0.014 0.010c-0.074-0.073-0.175-0.119-0.287-0.119-0.001 0-0.002 0-0.003 0h0zM19.436 16c-0.861 0.001-1.56 0.699-1.56 1.561s0.699 1.561 1.561 1.561 1.561-0.699 1.561-1.561v0c-0.002-0.862-0.7-1.56-1.562-1.561h-0zM12.563 16c0.861 0 1.56 0.699 1.56 1.56s-0.699 1.56-1.56 1.56-1.56-0.699-1.56-1.56c0-0.861 0.698-1.56 1.56-1.56h0zM22.261 6.933c0.852 0.006 1.54 0.698 1.54 1.551 0 0.857-0.694 1.551-1.551 1.551-0.828 0-1.505-0.65-1.549-1.467l-0-0.004-3.245-0.684-1 4.682c2.185 0.049 4.201 0.737 5.878 1.884l-0.037-0.024c0.38-0.379 0.905-0.614 1.485-0.614 0.008 0 0.017 0 0.025 0h-0.001c1.21 0.001 2.191 0.982 2.192 2.192v0c-0.007 0.88-0.513 1.64-1.249 2.011l-0.013 0.006c0.033 0.191 0.052 0.412 0.052 0.637 0 0.005 0 0.009-0 0.014v-0.001c0 3.367-3.911 6.086-8.752 6.086s-8.752-2.719-8.752-6.086c0-0.001 0-0.003 0-0.005 0-0.234 0.020-0.463 0.057-0.687l-0.003 0.024c-0.771-0.35-1.298-1.114-1.298-2.001 0-1.21 0.981-2.191 2.191-2.191 0 0 0.001 0 0.001 0h-0c0.586 0.006 1.116 0.238 1.509 0.613l-0.001-0.001c1.66-1.148 3.711-1.841 5.924-1.858l0.004-0 1.106-5.226c0.028-0.103 0.090-0.189 0.173-0.245l0.002-0.001c0.063-0.037 0.139-0.059 0.22-0.059 0.027 0 0.054 0.003 0.080 0.007l-0.003-0 3.631 0.771c0.247-0.522 0.77-0.876 1.375-0.876 0.003 0 0.007 0 0.010 0h-0.001zM16 1.004c0 0 0 0-0 0-8.282 0-14.996 6.714-14.996 14.996s6.714 14.996 14.996 14.996c8.282 0 14.996-6.714 14.996-14.996 0-4.141-1.678-7.89-4.392-10.604v0c-2.714-2.714-6.463-4.392-10.604-4.392v0z"/>
                </symbol>
        </svg>